<svg width="36" height="36" viewBox="0 0 36 36" fill="none" xmlns="http://www.w3.org/2000/svg">
  <ellipse cx="18" cy="20" rx="12" ry="9" fill="hsl(160, 22%, 46%)" opacity="0.25" />
  <path d="M18 10C12 10 8 15 8 20C8 25 12 28 18 28C24 28 28 25 28 20C28 15 24 10 18 10Z" stroke="hsl(160, 22%, 46%)" stroke-width="1.8" fill="none" />
  <path d="M18 12L15 16H21L18 12Z" fill="hsl(160, 22%, 46%)" opacity="0.4" />
  <path d="M13 18L18 14L23 18L20.5 24H15.5L13 18Z" stroke="hsl(160, 22%, 46%)" stroke-width="1.2" fill="hsl(160, 22%, 46%)" opacity="0.15" />
  <line x1="18" y1="14" x2="18" y2="24" stroke="hsl(160, 22%, 46%)" stroke-width="0.8" opacity="0.4" />
  <line x1="13" y1="18" x2="23" y2="18" stroke="hsl(160, 22%, 46%)" stroke-width="0.8" opacity="0.4" />
  <circle cx="11" cy="16" r="1.5" fill="hsl(160, 22%, 46%)" opacity="0.5" />
  <circle cx="25" cy="16" r="1.5" fill="hsl(160, 22%, 46%)" opacity="0.5" />
  <circle cx="9" cy="22" r="1.2" fill="hsl(160, 22%, 46%)" opacity="0.4" />
  <circle cx="27" cy="22" r="1.2" fill="hsl(160, 22%, 46%)" opacity="0.4" />
  <ellipse cx="13" cy="11" rx="2" ry="1.5" fill="hsl(160, 22%, 46%)" opacity="0.3" />
  <circle cx="12.5" cy="10.8" r="0.6" fill="hsl(220, 30%, 12%)" />
</svg>
